<?xml version="1.0" encoding="utf-8"?>
<!-- Generator: Adobe Illustrator 25.4.1, SVG Export Plug-In . SVG Version: 6.00 Build 0)  -->
<svg version="1.1" id="Layer_1" xmlns="http://www.w3.org/2000/svg" xmlns:xlink="http://www.w3.org/1999/xlink" x="0px" y="0px"
	 viewBox="0 0 500 500" style="enable-background:new 0 0 500 500;" xml:space="preserve">
<polygon points="203.91,334.29 113.92,490.17 293.91,490.17 "/>
<g>
	<path d="M240.52,172.47c-63.34-29.35-121.68-59.62-164.28-85.23C14.57,50.16,9.45,37.75,13.1,29.87s16.43-12,84.59,11.09
		c47.08,15.95,107.89,40.89,171.23,70.25s121.68,59.62,164.28,85.23c61.67,37.08,66.79,49.48,63.14,57.37s-16.43,12-84.59-11.09
		C364.67,226.77,303.86,201.82,240.52,172.47z M24.44,35.12c2.7,4.11,14.28,16.77,63.6,45.92c41.67,24.62,97.52,53.43,157.26,81.12
		s117.83,51.68,163.55,67.55c54.12,18.79,71.26,19.44,76.15,18.84c-2.7-4.11-14.28-16.77-63.6-45.92
		c-41.67-24.62-97.52-53.43-157.26-81.12S146.31,69.83,100.59,53.96C46.47,35.17,29.33,34.52,24.44,35.12z"/>
	<g>
		<path d="M5.16,57.18c-7.87,78.24,66.56,174.18,183.77,228.5c117.23,54.32,238.57,49.08,293.16-7.53
			c-31.22-0.57-132.09-36.99-247.73-90.58C118.82,134.03,25.9,80.66,5.16,57.18z"/>
	</g>
	<g>
		<path d="M279.19,71.31c-12.98,23.28-25.95,46.55-38.93,69.83c8.82,4.09,13.23,6.13,22.04,10.21
			c9.37-24.95,18.74-49.89,28.11-74.84c-2.02-0.31-4.04-0.89-5.99-1.79S280.73,72.65,279.19,71.31z"/>
	</g>
	<circle cx="297.62" cy="46.25" r="22.1"/>
</g>
</svg>
