<?xml version="1.0" encoding="utf-8"?>
<!-- Generator: Adobe Illustrator 25.4.1, SVG Export Plug-In . SVG Version: 6.00 Build 0)  -->
<svg version="1.1" id="Layer_1" xmlns="http://www.w3.org/2000/svg" xmlns:xlink="http://www.w3.org/1999/xlink" x="0px" y="0px"
	 viewBox="0 0 566.93 425.2" style="enable-background:new 0 0 566.93 425.2;" xml:space="preserve">
<style type="text/css">
	.st0{fill:#FFFFFF;}
</style>
<polygon class="st0" points="142.84,249.06 80.26,357.45 205.42,357.45 "/>
<g>
	<path class="st0" d="M320.4,312.38c0,13.84-0.01,24.51-0.04,32.02c-0.03,7.51-0.04,11.86-0.04,13.05
		c-0.9,0.12-4.58,0.39-11.02,0.81c-6.45,0.42-13.29,0.63-20.52,0.63c-4.75,0-10.16-0.4-16.24-1.19c-6.08-0.79-11.15-2.06-15.22-3.82
		c-5.2-2.26-9.27-5.24-12.21-8.95c-2.94-3.7-4.41-8.04-4.41-13.02c0-5.43,1.57-10.06,4.71-13.91c3.14-3.84,8.04-7.01,14.71-9.5
		c4.47-1.7,9.98-3.02,16.53-3.99c6.56-0.96,12.49-1.64,17.81-2.04c-0.17-3.05-0.97-5.55-2.42-7.5c-1.44-1.95-3.89-3.46-7.34-4.54
		c-2.26-0.73-4.76-1.26-7.5-1.57c-2.74-0.31-6.01-0.47-9.79-0.47c-3.45,0-6.39,0.06-8.82,0.17c-2.43,0.11-5.06,0.23-7.89,0.34
		l2.29-18.91c1.13-0.06,2.94-0.13,5.43-0.21c2.49-0.08,5.99-0.13,10.51-0.13c9.55,0,17.51,0.82,23.87,2.46
		c6.36,1.64,11.72,4.35,16.07,8.13c4.01,3.45,6.94,7.64,8.78,12.58S320.4,304.3,320.4,312.38z M295.81,328.02c0-1.81,0-3.91,0-6.32
		c0-2.4-0.03-4.93-0.09-7.59c-1.64,0.06-4.55,0.38-8.73,0.98c-4.18,0.59-7.91,1.6-11.19,3.01c-2.26,0.91-4.34,2.32-6.23,4.24
		c-1.9,1.92-2.84,4.3-2.84,7.12c0,3.17,0.83,5.68,2.5,7.55c1.67,1.87,3.83,3.31,6.49,4.33c1.92,0.68,4.1,1.19,6.53,1.53
		c2.43,0.34,5.06,0.51,7.89,0.51c0.73,0,1.58-0.01,2.54-0.04c0.96-0.03,1.98-0.04,3.05-0.04c0-0.73,0.01-2.46,0.04-5.17
		C295.79,335.4,295.81,332.04,295.81,328.02z"/>
	<path class="st0" d="M441.79,396.03h-26.03l0.25-38.75c-6.9-0.06-13.37-0.65-19.42-1.78c-6.05-1.13-11.36-2.85-15.94-5.17
		c-7.8-3.9-13.71-8.95-17.72-15.14c-4.01-6.19-6.02-13.67-6.02-22.43c0-7.41,2.08-14.16,6.23-20.27
		c4.15-6.11,10.1-10.97,17.85-14.59c6.33-3,13.14-5,20.44-6.02c7.29-1.02,16.08-1.53,26.37-1.53c1.87,0,4.16,0.01,6.87,0.04
		c2.71,0.03,5.09,0.04,7.12,0.04c-0.06,10.63-0.11,21.6-0.17,32.9c-0.06,11.31-0.08,19.39-0.08,24.25c0,13.74,0.04,27.73,0.13,41.97
		S441.79,392.64,441.79,396.03z M417.12,318.1c0-8.37-0.03-15.15-0.08-20.35c-0.06-5.2-0.08-8.42-0.08-9.67
		c-4.35,0-8.24,0.27-11.66,0.81c-3.42,0.54-6.94,1.74-10.56,3.6c-3.62,1.87-6.49,4.59-8.61,8.18c-2.12,3.59-3.18,7.56-3.18,11.91
		c0,4.86,1.02,9.09,3.05,12.68c2.04,3.59,5.2,6.49,9.5,8.69c2.71,1.47,5.68,2.54,8.9,3.22s6.84,1.02,10.85,1.02
		c0.28,0,0.58,0,0.89,0c0.31,0,0.61,0,0.89,0c0-1.75,0.01-4.59,0.04-8.52C417.1,325.75,417.12,321.89,417.12,318.1z"/>
	<path class="st0" d="M546.57,331.33c0,4.64-1.29,8.68-3.86,12.13c-2.57,3.45-5.84,6.25-9.79,8.39c-4.13,2.26-9.21,3.93-15.26,5
		c-6.05,1.07-12.16,1.61-18.32,1.61c-4.13,0.06-7.84,0-11.15-0.17c-3.31-0.17-5.55-0.25-6.74-0.25l-2.04-18.66
		c1.3,0.06,3.45,0.16,6.45,0.3c3,0.14,6.27,0.21,9.84,0.21c1.87,0,3.99-0.1,6.36-0.3c2.37-0.2,4.61-0.61,6.7-1.23
		c3.11-0.85,5.16-1.91,6.15-3.18c0.99-1.27,1.48-2.76,1.48-4.45c0-1.58-0.55-2.91-1.65-3.99c-1.1-1.07-2.84-2.26-5.21-3.56
		c-1.92-1.13-4.41-2.37-7.46-3.73c-3.05-1.36-5.8-2.77-8.23-4.24c-3.9-2.37-6.8-5.19-8.69-8.44c-1.9-3.25-2.84-6.85-2.84-10.81
		c0-4.3,1.21-8.18,3.65-11.66c2.43-3.48,6.13-6.43,11.11-8.86c4.07-1.98,8.86-3.36,14.37-4.16c5.51-0.79,10.7-1.24,15.56-1.36
		c4.07-0.06,7.46-0.04,10.18,0.04c2.71,0.08,4.52,0.13,5.43,0.13l2.21,18.74c-0.85,0-2.45-0.07-4.79-0.21
		c-2.35-0.14-5.27-0.21-8.78-0.21c-2.43,0-4.72,0.16-6.87,0.47c-2.15,0.31-4.07,0.75-5.77,1.31c-2.15,0.74-3.75,1.68-4.79,2.84
		c-1.05,1.16-1.57,2.42-1.57,3.77c0,1.64,0.66,3.05,1.99,4.24s3.07,2.32,5.22,3.39c2.09,1.13,4.71,2.43,7.84,3.9
		c3.14,1.47,5.61,2.74,7.42,3.82c3.9,2.37,6.85,5.1,8.86,8.18C545.56,323.43,546.57,327.09,546.57,331.33z"/>
</g>
<g>
	<path class="st0" d="M168.3,136.54c-44.04-20.41-84.61-41.46-114.23-59.26C11.19,51.5,7.63,42.87,10.17,37.39
		s11.42-8.34,58.81,7.71C101.72,56.19,144,73.53,188.04,93.94s84.61,41.46,114.23,59.26c42.88,25.78,46.44,34.41,43.9,39.89
		s-11.42,8.34-58.81-7.71C254.62,174.3,212.34,156.95,168.3,136.54z M18.05,41.04c1.88,2.86,9.93,11.66,44.22,31.93
		c28.97,17.12,67.81,37.15,109.35,56.4s81.93,35.93,113.72,46.97c37.63,13.06,49.55,13.52,52.95,13.1
		c-1.88-2.86-9.93-11.66-44.22-31.93c-28.97-17.12-67.81-37.15-109.35-56.4S102.79,65.18,71,54.14
		C33.37,41.08,21.45,40.63,18.05,41.04z"/>
	<g>
		<path class="st0" d="M4.64,56.38c-5.48,54.4,46.28,121.11,127.78,158.88c81.51,37.77,165.88,34.13,203.84-5.24
			c-21.71-0.4-91.85-25.72-172.26-62.98C83.68,109.82,19.06,72.71,4.64,56.38z"/>
	</g>
	<g>
		<path class="st0" d="M195.19,66.2c-9.02,16.18-18.04,32.37-27.07,48.55c6.13,2.84,9.2,4.26,15.33,7.1
			c6.52-17.35,13.03-34.69,19.55-52.04c-1.41-0.21-2.81-0.62-4.17-1.24S196.26,67.14,195.19,66.2z"/>
	</g>
	<circle class="st0" cx="208" cy="48.78" r="15.37"/>
</g>
</svg>
